<?xml version="1.0" encoding="utf-8"?>
<svg version="1.1" xmlns:xlink="http://www.w3.org/1999/xlink" width="30px" height="29px" xmlns="http://www.w3.org/2000/svg">
  <g transform="matrix(1 0 0 1 -68 -66 )">
    <path d="M 20.4987980769231 17.7618147448015  L 21.3822115384615 16.9029615626969  L 26.015625 12.3345935727788  L 19.5973557692308 11.3843730308759  L 18.4074519230769 11.2016383112791  L 17.8665865384615 10.1052299936988  L 15 4.22117202268431  L 15 21.8185255198488  L 16.0637019230769 22.3850031505986  L 21.796875 25.4549464398236  L 20.7151442307692 18.9678638941399  L 20.4987980769231 17.7618147448015  Z M 29.9639423076923 11.0280403276623  C 30.0721153846154 11.3630539802562  29.9278846153846 11.7254778407897  29.53125 12.1153119092628  L 22.9867788461538 18.5841209829868  L 24.5372596153846 27.7208569628229  C 24.5973557692308 28.1228733459357  24.5612980769231 28.4365679479101  24.4290865384615 28.6619407687461  C 24.296875 28.887313589582  24.0925480769231 29  23.8161057692308 29  C 23.6117788461538 29  23.3713942307692 28.9269061121613  23.0949519230769 28.7807183364839  L 15 24.4681789540013  L 6.90504807692308 28.7807183364839  C 6.62860576923077 28.9269061121613  6.38822115384615 29  6.18389423076923 29  C 5.90745192307692 29  5.703125 28.887313589582  5.57091346153846 28.6619407687461  C 5.43870192307692 28.4365679479101  5.40264423076923 28.1228733459357  5.46274038461538 27.7208569628229  L 7.01322115384615 18.5841209829868  L 0.450721153846154 12.1153119092628  C 0.0661057692307692 11.7254778407897  -0.0721153846153846 11.3630539802562  0.0360576923076923 11.0280403276623  C 0.144230769230769 10.6930266750683  0.46875 10.482881747532  1.00961538461538 10.3976055450536  L 10.0600961538462 9.06364209199748  L 14.1165865384615 0.749212350346564  C 14.3569711538462 0.24973745011552  14.6514423076923 0  15 0  C 15.3365384615385 0  15.6310096153846 0.24973745011552  15.8834134615385 0.749212350346564  L 19.9399038461538 9.06364209199748  L 28.9903846153846 10.3976055450536  C 29.53125 10.482881747532  29.8557692307692 10.6930266750683  29.9639423076923 11.0280403276623  Z " fill-rule="nonzero" fill="#169bd5" stroke="none" transform="matrix(1 0 0 1 68 66 )" />
  </g>
</svg>