<?xml version="1.0" standalone="no"?><!DOCTYPE svg PUBLIC "-//W3C//DTD SVG 1.1//EN" "http://www.w3.org/Graphics/SVG/1.1/DTD/svg11.dtd"><svg t="1559097270938" class="icon" style="" viewBox="0 0 1024 1024" version="1.1" xmlns="http://www.w3.org/2000/svg" p-id="1505" xmlns:xlink="http://www.w3.org/1999/xlink" width="200" height="200"><defs><style type="text/css"></style></defs><path d="M860.846106 710.045565l146.742109-387.689786c2.384303-6.2831 1.524726-13.343913-2.302439-18.879999-3.816932-5.525853-10.110265-8.831132-16.833387-8.831132l-489.723647 0c-11.307533 0-20.466124 9.15859-20.466124 20.466124s9.15859 20.466124 20.466124 20.466124l460.0887 0-131.249253 346.757538-369.945657 0-139.169643-561.989531c-0.081864-0.296759-0.163729-0.603751-0.245593-0.900509-9.281387-31.241538-20.466124-51.492768-36.265972-65.665559-18.306948-16.413831-43.081191-24.39562-75.745125-24.39562L70.229504 29.383214c-0.757247 0-1.50426 0.040932-2.241041 0.122797-21.499663 1.166569-38.578644 18.961864-38.578644 40.748053 0 22.533202 18.276249 40.809451 40.819684 40.809451 22.512736 0 40.778752-18.24555 40.809451-40.748053l95.157243 0c29.460985 0 41.74066 7.951089 48.412616 13.93743 9.782807 8.769734 17.263176 23.096021 24.221658 46.396703l163.002444 658.190547c0.020466 0.102331 0.051165 0.204661 0.071631 0.306992 8.667404 32.796964 18.163685 68.735477 54.879911 86.367043-11.573593 14.090926-18.521842 32.121582-18.521842 51.748594 0 45.035706 36.644595 81.680301 81.680301 81.680301s81.680301-36.644595 81.680301-81.680301c0-14.827707-3.970428-28.744671-10.908444-40.748053l123.717719 0c-6.938016 12.003382-10.908444 25.920346-10.908444 40.748053 0 45.035706 36.644595 81.680301 81.680301 81.680301 45.045939 0 81.680301-36.644595 81.680301-81.680301 0-45.045939-36.634362-81.680301-81.680301-81.680301-1.320065 0-2.629897 0.030699-3.939729 0.092098l-0.020466 0c-0.010233 0-0.010233 0-0.020466 0s-0.010233 0-0.020466 0c-0.654916-0.061398-1.320065-0.092098-1.995447-0.092098l-265.189801 0c-54.798047 0-60.753689-22.308075-72.491011-66.74003l-13.763468-55.57576 373.946784 0C850.213955 723.266681 857.837586 718.006887 860.846106 710.045565zM865.952404 927.262772c0 22.461571-18.276249 40.748053-40.748053 40.748053-22.461571 0-40.748053-18.286482-40.748053-40.748053 0-22.471804 18.286482-40.748053 40.748053-40.748053C847.676156 886.514719 865.952404 904.790968 865.952404 927.262772zM559.942919 886.514719c22.471804 0 40.748053 18.276249 40.748053 40.748053 0 22.461571-18.276249 40.748053-40.748053 40.748053s-40.748053-18.286482-40.748053-40.748053C519.194866 904.790968 537.471115 886.514719 559.942919 886.514719z" p-id="1506"></path></svg>